<?xml version="1.0" encoding="UTF-8" standalone="no"?>
<!-- Created with Inkscape (http://www.inkscape.org/) -->

<svg
   width="210mm"
   height="297mm"
   viewBox="0 0 210 297"
   version="1.1"
   id="svg1"
   inkscape:version="1.3.2 (091e20e, 2023-11-25, custom)"
   sodipodi:docname="picts.svg"
   xml:space="preserve"
   xmlns:inkscape="http://www.inkscape.org/namespaces/inkscape"
   xmlns:sodipodi="http://sodipodi.sourceforge.net/DTD/sodipodi-0.dtd"
   xmlns:xlink="http://www.w3.org/1999/xlink"
   xmlns="http://www.w3.org/2000/svg"
   xmlns:svg="http://www.w3.org/2000/svg"><sodipodi:namedview
     id="namedview1"
     pagecolor="#000000"
     bordercolor="#000000"
     borderopacity="0.25"
     inkscape:showpageshadow="2"
     inkscape:pageopacity="0.0"
     inkscape:pagecheckerboard="0"
     inkscape:deskcolor="#424242"
     inkscape:document-units="mm"
     showgrid="true"
     inkscape:zoom="0.5"
     inkscape:cx="904"
     inkscape:cy="1425"
     inkscape:window-width="2560"
     inkscape:window-height="1017"
     inkscape:window-x="-8"
     inkscape:window-y="-8"
     inkscape:window-maximized="1"
     inkscape:current-layer="layer1"
     showguides="false"><inkscape:grid
       id="grid1"
       units="mm"
       originx="0"
       originy="0"
       spacingx="0.5"
       spacingy="0.5"
       empcolor="#0099e5"
       empopacity="0.30196078"
       color="#0099e5"
       opacity="0.14901961"
       empspacing="5"
       dotted="false"
       gridanglex="30"
       gridanglez="30"
       visible="true" /></sodipodi:namedview><defs
     id="defs1"><marker
       style="overflow:visible"
       id="DartArrow"
       refX="0"
       refY="0"
       orient="auto-start-reverse"
       inkscape:stockid="Dart arrow"
       markerWidth="0.5"
       markerHeight="0.5"
       viewBox="0 0 1 1"
       inkscape:isstock="true"
       inkscape:collect="always"
       preserveAspectRatio="none"><path
         style="fill:context-stroke;fill-rule:evenodd;stroke:none"
         d="M 0,0 5,-5 -12.5,0 5,5 Z"
         transform="scale(-0.5)"
         id="path6" /></marker><linearGradient
       id="linearGradient14"
       inkscape:collect="always"><stop
         style="stop-color:#ffffff;stop-opacity:1;"
         offset="0"
         id="stop15" /><stop
         style="stop-color:#ffffff;stop-opacity:0;"
         offset="1"
         id="stop16" /></linearGradient><linearGradient
       id="linearGradient9"
       inkscape:collect="always"><stop
         style="stop-color:#ffffff;stop-opacity:0;"
         offset="0"
         id="stop9" /><stop
         style="stop-color:#ffffff;stop-opacity:0;"
         offset="1"
         id="stop10" /></linearGradient><linearGradient
       id="linearGradient17"
       inkscape:collect="always"><stop
         style="stop-color:#ffffff;stop-opacity:1;"
         offset="0"
         id="stop17" /><stop
         style="stop-color:#ffffff;stop-opacity:0;"
         offset="1"
         id="stop18" /></linearGradient><linearGradient
       id="linearGradient20"
       inkscape:label="123"><stop
         style="stop-color:#000000;stop-opacity:1;"
         offset="0"
         id="stop3" /><stop
         style="stop-color:#000000;stop-opacity:0;"
         offset="1"
         id="stop4" /></linearGradient><clipPath
       clipPathUnits="userSpaceOnUse"
       id="clipPath33"><rect
         style="fill:#000000;stroke:none;stroke-width:0.999995;stroke-linecap:butt;stroke-linejoin:bevel;paint-order:stroke markers fill;stop-color:#000000"
         id="rect33"
         width="46.19186"
         height="80.006783"
         x="74.999985"
         y="399.99661" /></clipPath><radialGradient
       inkscape:collect="always"
       xlink:href="#linearGradient17"
       id="radialGradient18"
       cx="145"
       cy="230"
       fx="145"
       fy="230"
       r="55"
       gradientTransform="translate(0,1.595237e-5)"
       gradientUnits="userSpaceOnUse" /><linearGradient
       inkscape:collect="always"
       xlink:href="#linearGradient9"
       id="linearGradient10"
       x1="261.93628"
       y1="126.91434"
       x2="279.52511"
       y2="126.91434"
       gradientUnits="userSpaceOnUse" /><linearGradient
       inkscape:collect="always"
       xlink:href="#linearGradient14"
       id="linearGradient16"
       x1="261.93628"
       y1="126.91434"
       x2="279.52512"
       y2="126.91434"
       gradientUnits="userSpaceOnUse" /></defs><g
     inkscape:label="Ğ¡Ğ»Ğ¾Ğ¹ 1"
     inkscape:groupmode="layer"
     id="layer1"><path
       style="fill:none;fill-opacity:1;stroke:#ffffff;stroke-width:3.398;stroke-dasharray:none;stroke-opacity:1"
       d="m 70.35308,69.809825 c 0,0 0,0 27.31798,-49.793538 27.31798,49.793539 27.31798,49.793539 27.31798,49.793539 -54.989038,0.190172 -54.989038,0.190172 -54.989038,0.190172"
       id="path11" /><path
       style="fill:none;fill-opacity:1;stroke:#ffffff;stroke-width:3.398;stroke-dasharray:none;stroke-opacity:1"
       d="m 97.671058,20.016287 c -27.671056,49.98371 -27.671056,49.98371 -27.671056,49.98371 v 0"
       id="path13" /><path
       style="fill:#ffffff;fill-opacity:1;stroke:#ffffff;stroke-width:0.846407;stroke-dasharray:none;stroke-opacity:1"
       d="M 65.087693,140.95831 C 90.087691,95.958332 90.087691,95.958332 90.087691,95.958332 c -49.999998,0 -49.999998,0 -49.999998,0 25,44.999998 25,44.999998 25,44.999998"
       id="path15"
       inkscape:export-filename="markers\projectile.png"
       inkscape:export-xdpi="96"
       inkscape:export-ydpi="96" /><rect
       style="fill:#ffffff;fill-opacity:1;stroke:none;stroke-width:1.098;stroke-dasharray:none;stroke-opacity:1"
       id="rect17"
       width="50.087692"
       height="50.205528"
       x="15"
       y="165"
       ry="14.999997"
       inkscape:export-filename="markers\interactable.png"
       inkscape:export-xdpi="96"
       inkscape:export-ydpi="96" /><path
       style="fill:none;fill-opacity:0;stroke:#000000;stroke-width:3.607;stroke-dasharray:none;stroke-opacity:1;stroke-linecap:round"
       d="M 25.000001,204.33764 C 55.927223,175 55.927223,175 55.927223,175"
       id="path17-8" /><path
       style="fill:none;fill-opacity:0;stroke:#000000;stroke-width:3.607;stroke-dasharray:none;stroke-opacity:1;stroke-linecap:round"
       d="m 25.000001,175 c 30.927222,29.33764 30.927222,29.33764 30.927222,29.33764"
       id="path16" /><ellipse
       style="fill:url(#radialGradient18);fill-opacity:1;stroke:none;stroke-width:3.60701;stroke-linecap:round;stroke-dasharray:none;stroke-opacity:1"
       id="path17"
       cx="145"
       cy="230"
       rx="55"
       ry="54.999996"
       inkscape:export-filename="markers\explosion.png"
       inkscape:export-xdpi="96"
       inkscape:export-ydpi="96" /><rect
       style="fill:#ffffff;fill-opacity:0;stroke:#ffffff;stroke-width:1.165;stroke-dasharray:none;stroke-opacity:1"
       id="rect1"
       width="30.000002"
       height="30.000002"
       x="186.52547"
       y="-117.53043"
       transform="rotate(44.999982)"
       inkscape:export-filename="markers\radar\pole.png"
       inkscape:export-xdpi="96"
       inkscape:export-ydpi="96" /><text
       xml:space="preserve"
       style="font-size:3.175px;fill:none;fill-opacity:0;stroke:none;stroke-width:1;stroke-dasharray:none;stroke-opacity:1"
       x="295.00003"
       y="128.51366"
       id="text2"><tspan
         sodipodi:role="line"
         id="tspan2"
         style="fill:none;stroke:none;stroke-width:1"
         x="295.00003"
         y="128.51366">Aasdasdasd</tspan></text><text
       xml:space="preserve"
       style="font-size:25.1587px;fill:#ffffff;fill-opacity:1;stroke:#dedede;stroke-width:1.0293;stroke-dasharray:none;stroke-opacity:1"
       x="203.35013"
       y="79.874611"
       id="text3"
       transform="scale(1.0104113,0.98969596)"><tspan
         sodipodi:role="line"
         id="tspan3"
         style="fill:#ffffff;fill-opacity:1;stroke:#dedede;stroke-width:1.0293;stroke-dasharray:none;stroke-opacity:1"
         x="203.35013"
         y="79.874611">N</tspan></text><rect
       style="fill:#ffffff;fill-opacity:0;stroke:#ffffff;stroke-width:1.165;stroke-dasharray:none;stroke-opacity:1"
       id="rect1-7"
       width="30.000002"
       height="30.000002"
       x="228.95189"
       y="-159.09895"
       transform="rotate(44.999982)"
       inkscape:export-filename="markers\radar\resource.png"
       inkscape:export-xdpi="96"
       inkscape:export-ydpi="96" /><text
       xml:space="preserve"
       style="font-size:25.1907px;fill:#ffffff;fill-opacity:1;stroke:#dedede;stroke-width:1.03061;stroke-dasharray:none;stroke-opacity:1"
       x="262.48865"
       y="79.9814"
       id="text3-5"
       transform="scale(1.0117706,0.98836635)"><tspan
         sodipodi:role="line"
         id="tspan3-1"
         style="fill:#ffffff;fill-opacity:1;stroke:#dedede;stroke-width:1.03061;stroke-dasharray:none;stroke-opacity:1"
         x="262.48865"
         y="79.9814">R</tspan></text><rect
       style="fill:#ffffff;fill-opacity:0;stroke:#ffffff;stroke-width:1.165;stroke-dasharray:none;stroke-opacity:1"
       id="rect1-3"
       width="30.000002"
       height="30.000002"
       x="226.83147"
       y="-80.668137"
       transform="rotate(44.999982)"
       inkscape:export-filename="markers\radar\hbody.png"
       inkscape:export-xdpi="96"
       inkscape:export-ydpi="96" /><text
       xml:space="preserve"
       style="font-size:23.392px;fill:#ffffff;fill-opacity:1;stroke:#dedede;stroke-width:0.957019;stroke-dasharray:none;stroke-opacity:1"
       x="224.83382"
       y="125.0628"
       id="text3-56"
       transform="scale(0.93572092,1.0686947)"><tspan
         sodipodi:role="line"
         id="tspan3-0"
         style="fill:#ffffff;fill-opacity:1;stroke:#dedede;stroke-width:0.957019;stroke-dasharray:none;stroke-opacity:1"
         x="224.83382"
         y="125.0628">B</tspan></text><rect
       style="fill:#ffffff;fill-opacity:0;stroke:#ffffff;stroke-width:1.165;stroke-dasharray:none;stroke-opacity:1"
       id="rect1-9"
       width="30.000002"
       height="30.000002"
       x="267.84274"
       y="-120.20807"
       transform="rotate(44.999982)"
       inkscape:export-filename="markers\radar\activity.png"
       inkscape:export-xdpi="96"
       inkscape:export-ydpi="96" /><text
       xml:space="preserve"
       style="font-size:25.1587px;fill:#ffffff;fill-opacity:1;stroke:#ffffff;stroke-width:1.0293;stroke-dasharray:none;stroke-opacity:1"
       x="262.96689"
       y="136.06015"
       id="text3-0"
       transform="scale(1.0104113,0.98969597)"><tspan
         sodipodi:role="line"
         id="tspan3-7"
         style="fill:#ffffff;fill-opacity:1;stroke:#ffffff;stroke-width:1.0293;stroke-dasharray:none;stroke-opacity:1"
         x="262.96689"
         y="136.06015">A</tspan></text><ellipse
       style="fill:none;stroke-width:1.765;stroke:#ffffff;stroke-opacity:1;stroke-dasharray:none"
       id="path1"
       cx="330"
       cy="219.99998"
       rx="40"
       ry="39.999996"
       inkscape:export-filename="markers\circle_bold.png"
       inkscape:export-xdpi="96"
       inkscape:export-ydpi="96" /><ellipse
       style="fill:#ffffff;fill-opacity:0;stroke:none;stroke-width:1.73052;stroke-dasharray:none;stroke-opacity:1"
       id="path1-6"
       cx="-60"
       cy="105.533"
       rx="38.971859"
       ry="39.466988"
       inkscape:export-filename="markers\direction.png"
       inkscape:export-xdpi="96"
       inkscape:export-ydpi="96" /><path
       style="fill:#ffffff;fill-opacity:0.153527;stroke:#ffffff;stroke-width:3.50387;stroke-dasharray:none;stroke-opacity:1;marker-end:url(#DartArrow)"
       d="m -59.999998,105.533 c 0,-30.533002 0,-30.533002 0,-30.533002"
       id="path2" /><path
       d="m -315.13219,135.13697 c -8.23398,0 -14.86265,2.16929 -14.86265,4.86327 v 4.99298 a 69.607112,34.803832 0 0 1 34.79839,30.13924 69.607112,34.803832 0 0 1 -34.79839,30.13873 v 4.9935 c 0,2.69398 6.62867,4.86275 14.86265,4.86275 h 110.1323 c 8.23398,0 14.86266,-2.16877 14.86266,-4.86275 v -10.10792 h -10.00818 c -8.23541,0 -14.86576,-3.72206 -14.86576,-8.34522 v -33.33182 c 0,-4.62316 6.63035,-8.34522 14.86576,-8.34522 h 10.00818 v -10.13427 c 0,-2.69398 -6.62868,-4.86327 -14.86266,-4.86327 z m 59.96224,9.86658 a 30.169838,29.996605 0 0 1 30.16973,29.99662 30.169838,29.996605 0 0 1 -30.16973,29.99662 30.169838,29.996605 0 0 1 -30.16974,-29.99662 30.169838,29.996605 0 0 1 30.16974,-29.99662 z"
       style="fill:#ffffff;stroke:#ffffff;stroke-width:0.274414;fill-opacity:1"
       id="path14" /><rect
       style="fill:none;stroke:#ffffff;stroke-width:0.240457;stroke-opacity:1"
       id="rect7-9"
       width="59.874592"
       height="49.892059"
       x="290.12543"
       y="305"
       ry="8.3233948"
       rx="8.3716516" /><path
       d="m -185.00008,150.13451 h 30.00024 c 8.23542,0 14.86524,3.72206 14.86524,8.34522 v 33.33182 c 0,4.62316 -6.62982,8.34522 -14.86524,8.34522 h -30.00024 v 9.84333 h 33.11736 l 56.882834,-15.00012 v -34.99993 l -55.000264,-19.99981 h -34.99993 z"
       style="fill:#ffffff;stroke:#ffffff;stroke-width:0.264583;fill-opacity:1"
       id="path18" /><path
       d="m -225.02477,217.64394 h -59.83097 a 29.922199,29.922199 0 0 0 29.91549,29.85606 29.922199,29.922199 0 0 0 29.91548,-29.85606 z"
       style="fill:#ffffff;fill-opacity:1;stroke:#ffffff;stroke-width:0.287887"
       id="path12" /><path
       d="m -225.52775,131.59562 a 29.922199,29.922199 0 0 0 0.007,-0.0661 29.922199,29.922199 0 0 0 -29.9222,-29.92221 29.922199,29.922199 0 0 0 -29.92221,29.92221 29.922199,29.922199 0 0 0 0.007,0.0661 z"
       style="fill:#ffffff;fill-opacity:1;stroke:#ffffff;stroke-width:1.28049"
       id="path10" /><rect
       style="fill:#ffffff;fill-opacity:1;stroke:#ffffff;stroke-width:0.285875;stroke-opacity:1"
       id="rect12"
       width="69.727783"
       height="10.071967"
       x="-269.72778"
       y="222.5" /><rect
       style="fill:#ffffff;stroke:#ffffff;stroke-width:0.274414;stroke-opacity:1;fill-opacity:1"
       id="rect2-3"
       width="139.85788"
       height="79.990158"
       x="-339.85788"
       y="-24.99016"
       ry="4.8627892"
       rx="14.862798" /><ellipse
       style="fill:#ffffff;fill-opacity:1;stroke:#ffffff;stroke-width:0.241663;stroke-opacity:1"
       id="path3-3"
       cx="-255.05788"
       cy="174.94086"
       rx="27.434206"
       ry="27.438307" /><path
       d="m -360.73228,142.71428 v 64.83584 a 62.988531,32.418072 0 0 0 62.98874,-32.41761 62.988531,32.418072 0 0 0 -62.98874,-32.41823 z"
       style="fill:#ffffff;fill-opacity:1;stroke:#ffffff;stroke-width:0.360488"
       id="path5-8" /><rect
       style="fill:#ffffff;fill-opacity:1;stroke:#ffffff;stroke-width:0.244318;stroke-opacity:1"
       id="rect7-8"
       width="68.535255"
       height="44.998028"
       x="-212.43719"
       y="152.50098"
       ry="7.5069337"
       rx="13.60648"
       inkscape:export-filename="ship\resources.png"
       inkscape:export-xdpi="96"
       inkscape:export-ydpi="96" /><path
       style="fill:#ffffff;fill-opacity:1;stroke:#ffffff;stroke-width:0.264583;stroke-opacity:1"
       d="m -155,-4.9999999 35,10e-6 v 0 L -65.000004,15.00001 V 50 L -121.88271,65 H -155"
       id="path7-4"
       sodipodi:nodetypes="ccccccc" /><path
       style="fill:#ffffff;fill-opacity:1;stroke:#ffffff;stroke-width:0.264583;stroke-opacity:1"
       d="m -188.64587,130.53513 c 0,-70.000001 0,-70.000001 0,-70.000001"
       id="path8-2" /><path
       d="m -234.94731,59.872626 h -59.83097 a 29.922199,29.922199 0 0 0 29.91549,29.85606 29.922199,29.922199 0 0 0 29.91548,-29.85606 z"
       style="fill:#ffffff;stroke:#ffffff;stroke-width:0.287887;fill-opacity:1"
       id="path12-1" /><rect
       style="fill:#ffffff;stroke:#ffffff;stroke-width:0.285875;stroke-opacity:1;fill-opacity:1"
       id="rect12-5"
       width="69.727783"
       height="10.071967"
       x="-279.59058"
       y="64.728683" /><path
       d="m -235.00701,-29.933899 a 29.922199,29.922199 0 0 0 0.007,-0.0661 29.922199,29.922199 0 0 0 -29.9222,-29.92221 29.922199,29.922199 0 0 0 -29.92221,29.92221 29.922199,29.922199 0 0 0 0.007,0.0661 z"
       style="fill:#ffffff;stroke:#ffffff;stroke-width:1.28049;fill-opacity:1"
       id="path10-7" /><path
       d="m -350.03634,300.07615 c -8.23398,0 -14.86265,2.16929 -14.86265,4.86327 v 4.99298 a 69.607112,34.803832 0 0 1 34.79839,30.13924 69.607112,34.803832 0 0 1 -34.79839,30.13873 v 4.9935 c 0,2.69398 6.62867,4.86275 14.86265,4.86275 h 110.1323 c 8.23398,0 14.86266,-2.16877 14.86266,-4.86275 v -10.10792 h -10.00818 c -8.23541,0 -14.86576,-3.72206 -14.86576,-8.34522 v -33.33182 c 0,-4.62316 6.63035,-8.34522 14.86576,-8.34522 h 10.00818 v -10.13427 c 0,-2.69398 -6.62868,-4.86327 -14.86266,-4.86327 z m 59.96224,9.86658 a 30.169838,29.996605 0 0 1 30.16973,29.99662 30.169838,29.996605 0 0 1 -30.16973,29.99662 30.169838,29.996605 0 0 1 -30.16974,-29.99662 30.169838,29.996605 0 0 1 30.16974,-29.99662 z"
       style="fill:#ffffff;fill-opacity:1;stroke:#ffffff;stroke-width:0.274414"
       id="path14-6"
       inkscape:export-filename="ship\hull.png"
       inkscape:export-xdpi="96"
       inkscape:export-ydpi="96" /><path
       d="m -219.90423,315.07369 h 30.00024 c 8.23542,0 14.86524,3.72206 14.86524,8.34522 v 33.33182 c 0,4.62316 -6.62982,8.34522 -14.86524,8.34522 h -30.00024 v 9.84333 h 33.11736 l 56.88284,-15.00012 v -34.99993 l -55.00027,-19.99981 h -34.99993 z"
       style="fill:#ffffff;fill-opacity:1;stroke:#ffffff;stroke-width:0.264583"
       id="path18-3"
       inkscape:export-filename="ship\cone.png"
       inkscape:export-xdpi="96"
       inkscape:export-ydpi="96" /><path
       d="m -259.92892,382.58312 h -59.83097 a 29.922199,29.922199 0 0 0 29.91549,29.85606 29.922199,29.922199 0 0 0 29.91548,-29.85606 z"
       style="fill:#ffffff;fill-opacity:1;stroke:#ffffff;stroke-width:0.287887"
       id="path12-6"
       inkscape:export-filename="ship\launcher.png"
       inkscape:export-xdpi="96"
       inkscape:export-ydpi="96" /><path
       d="m -260.4319,296.5348 a 29.922199,29.922199 0 0 0 0.007,-0.0661 29.922199,29.922199 0 0 0 -29.9222,-29.92221 29.922199,29.922199 0 0 0 -29.92221,29.92221 29.922199,29.922199 0 0 0 0.007,0.0661 z"
       style="fill:#ffffff;fill-opacity:1;stroke:#ffffff;stroke-width:1.28049"
       id="path10-3"
       inkscape:export-filename="radar.png"
       inkscape:export-xdpi="96"
       inkscape:export-ydpi="96" /><rect
       style="fill:#ffffff;fill-opacity:1;stroke:#ffffff;stroke-width:0.285875;stroke-opacity:1"
       id="rect12-8"
       width="69.727783"
       height="10.071967"
       x="-304.63193"
       y="387.43918" /><path
       d="m -432.98875,307.58176 v 64.83584 a 62.988531,32.418072 0 0 0 62.98874,-32.41761 62.988531,32.418072 0 0 0 -62.98874,-32.41823 z"
       style="fill:#ffffff;fill-opacity:1;stroke:#ffffff;stroke-width:0.360488"
       id="path5-8-2"
       inkscape:export-filename="ship\engine.png"
       inkscape:export-xdpi="96"
       inkscape:export-ydpi="96" /><ellipse
       style="fill:#ffffff;fill-opacity:1;stroke:#ffffff;stroke-width:0.241663;stroke-opacity:1"
       id="path3-3-9"
       cx="0.038363412"
       cy="369.92996"
       rx="27.434206"
       ry="27.438307"
       inkscape:export-filename="energy.png"
       inkscape:export-xdpi="96"
       inkscape:export-ydpi="96" /><path
       sodipodi:type="star"
       style="fill:none;stroke:#ffffff;stroke-width:3.465;stroke-dasharray:none"
       id="path3"
       inkscape:flatsided="true"
       sodipodi:sides="6"
       sodipodi:cx="-660"
       sodipodi:cy="35"
       sodipodi:r1="35"
       sodipodi:r2="30.310888"
       sodipodi:arg1="0"
       sodipodi:arg2="0.52359878"
       inkscape:rounded="0"
       inkscape:randomized="0"
       d="m -625,35 -17.5,30.310889 -35,0 L -695,35 l 17.5,-30.3108891 35,0 z"
       inkscape:transform-center-x="-8.3149606e-06"
       inkscape:export-filename="capmarks\A.png"
       inkscape:export-xdpi="96"
       inkscape:export-ydpi="96" /><text
       xml:space="preserve"
       style="font-size:50.6595px;fill:#ffffff;fill-opacity:1;stroke:#dedede;stroke-width:2.0726;stroke-dasharray:none;stroke-opacity:1"
       x="-681.39819"
       y="53.200825"
       id="text3-3"
       transform="scale(0.99385173,1.0061863)"><tspan
         sodipodi:role="line"
         id="tspan3-3"
         style="fill:#ffffff;fill-opacity:1;stroke:#dedede;stroke-width:2.0726;stroke-dasharray:none;stroke-opacity:1"
         x="-681.39819"
         y="53.200825">A</tspan></text><path
       sodipodi:type="star"
       style="fill:none;stroke:#ffffff;stroke-width:3.465;stroke-dasharray:none"
       id="path3-2"
       inkscape:flatsided="true"
       sodipodi:sides="6"
       sodipodi:cx="-660"
       sodipodi:cy="35"
       sodipodi:r1="35"
       sodipodi:r2="30.310888"
       sodipodi:arg1="0"
       sodipodi:arg2="0.52359878"
       inkscape:rounded="0"
       inkscape:randomized="0"
       d="m -625,35 -17.5,30.310889 -35,0 L -695,35 l 17.5,-30.3108891 35,0 z"
       inkscape:transform-center-x="-8.3149606e-06"
       transform="translate(-1.5186132e-5,70.310887)"
       inkscape:export-filename="capmarks\B.png"
       inkscape:export-xdpi="96"
       inkscape:export-ydpi="96" /><text
       xml:space="preserve"
       style="font-size:50.6595px;fill:#ffffff;fill-opacity:1;stroke:#dedede;stroke-width:2.0726;stroke-dasharray:none;stroke-opacity:1"
       x="-680.54968"
       y="123.07942"
       id="text3-3-7"
       transform="scale(0.99385173,1.0061863)"><tspan
         sodipodi:role="line"
         id="tspan3-3-4"
         style="fill:#ffffff;fill-opacity:1;stroke:#dedede;stroke-width:2.0726;stroke-dasharray:none;stroke-opacity:1"
         x="-680.54968"
         y="123.07942">B</tspan></text><path
       sodipodi:type="star"
       style="fill:none;stroke:#ffffff;stroke-width:3.465;stroke-dasharray:none"
       id="path3-7"
       inkscape:flatsided="true"
       sodipodi:sides="6"
       sodipodi:cx="-660"
       sodipodi:cy="35"
       sodipodi:r1="35"
       sodipodi:r2="30.310888"
       sodipodi:arg1="0"
       sodipodi:arg2="0.52359878"
       inkscape:rounded="0"
       inkscape:randomized="0"
       d="m -625,35 -17.5,30.310889 -35,0 L -695,35 l 17.5,-30.3108891 35,0 z"
       inkscape:transform-center-x="-8.3149606e-06"
       transform="translate(-1.5186102e-5,145.31088)"
       inkscape:export-filename="capmarks\C.png"
       inkscape:export-xdpi="96"
       inkscape:export-ydpi="96" /><text
       xml:space="preserve"
       style="font-size:50.6595px;fill:#ffffff;fill-opacity:1;stroke:#dedede;stroke-width:2.0726;stroke-dasharray:none;stroke-opacity:1"
       x="-683.08032"
       y="198.04939"
       id="text3-3-4"
       transform="scale(0.99385173,1.0061863)"><tspan
         sodipodi:role="line"
         id="tspan3-3-9"
         style="fill:#ffffff;fill-opacity:1;stroke:#dedede;stroke-width:2.0726;stroke-dasharray:none;stroke-opacity:1"
         x="-683.08032"
         y="198.04939">C</tspan></text><path
       d="m -349.68925,493.52965 c -8.23398,0 -14.86265,2.16929 -14.86265,4.86327 v 4.99298 a 69.607112,34.803832 0 0 1 34.79839,30.13924 69.607112,34.803832 0 0 1 -34.79839,30.13873 v 4.9935 c 0,2.69398 6.62867,4.86275 14.86265,4.86275 h 110.1323 c 8.23398,0 14.86266,-2.16877 14.86266,-4.86275 v -10.10792 h -10.00818 c -8.23541,0 -14.86576,-3.72206 -14.86576,-8.34522 v -33.33182 c 0,-4.62316 6.63035,-8.34522 14.86576,-8.34522 h 10.00818 v -10.13427 c 0,-2.69398 -6.62868,-4.86327 -14.86266,-4.86327 z m 59.96224,9.86658 a 30.169838,29.996605 0 0 1 30.16973,29.99662 30.169838,29.996605 0 0 1 -30.16973,29.99662 30.169838,29.996605 0 0 1 -30.16974,-29.99662 30.169838,29.996605 0 0 1 30.16974,-29.99662 z"
       style="fill:none;fill-opacity:1;stroke:#ffffff;stroke-width:1.36;stroke-dasharray:none"
       id="path14-6-3"
       inkscape:export-filename="ship\hull.png"
       inkscape:export-xdpi="96"
       inkscape:export-ydpi="96" /><path
       d="m -219.55714,508.52719 h 30.00024 c 8.23542,0 14.86524,3.72206 14.86524,8.34522 v 33.33182 c 0,4.62316 -6.62982,8.34522 -14.86524,8.34522 h -30.00024 v 9.84333 h 33.11736 l 56.88284,-15.00012 v -34.99993 l -55.00027,-19.99981 h -34.99993 z"
       style="fill:none;fill-opacity:1;stroke:#ffffff;stroke-width:1.36;stroke-dasharray:none"
       id="path18-3-5"
       inkscape:export-filename="ship\cone.png"
       inkscape:export-xdpi="96"
       inkscape:export-ydpi="96" /><path
       d="m -319.41254,576.03667 a 29.922199,29.922199 0 0 0 29.91548,29.85606 29.922199,29.922199 0 0 0 25.81031,-14.92829 h -40.59804 v -10.07173 h 44.25725 a 29.922199,29.922199 0 0 0 0.44545,-4.85604 z"
       style="fill:none;stroke:#ffffff;stroke-width:1.36"
       id="path5" /><path
       d="m -260.08481,489.9883 a 29.922199,29.922199 0 0 0 0.007,-0.0661 29.922199,29.922199 0 0 0 -29.9222,-29.92221 29.922199,29.922199 0 0 0 -29.92221,29.92221 29.922199,29.922199 0 0 0 0.007,0.0661 z"
       style="fill:none;fill-opacity:1;stroke:#ffffff;stroke-width:3.56;stroke-dasharray:none"
       id="path10-3-9"
       inkscape:export-filename="radar_selected.png"
       inkscape:export-xdpi="96"
       inkscape:export-ydpi="96" /><path
       d="m -260.02754,580.89271 a 29.922199,29.922199 0 0 1 -3.65921,10.07173 h 29.12949 v -10.07173 z"
       style="fill:none;stroke:#ffffff;stroke-width:1.36"
       id="path7" /><path
       d="m -260.02754,580.89271 h -44.25725 v 10.07173 h 40.59804 a 29.922199,29.922199 0 0 0 3.65921,-10.07173 z"
       style="fill:none;stroke:#ffffff;stroke-width:1.36"
       id="path4" /><path
       d="m -432.64166,501.03526 v 64.83584 a 62.988531,32.418072 0 0 0 62.98874,-32.41761 62.988531,32.418072 0 0 0 -62.98874,-32.41823 z"
       style="fill:none;fill-opacity:1;stroke:#ffffff;stroke-width:3.56;stroke-dasharray:none"
       id="path5-8-2-6"
       inkscape:export-filename="ship\engine_selected.png"
       inkscape:export-xdpi="96"
       inkscape:export-ydpi="96" /><ellipse
       style="fill:none;fill-opacity:1;stroke:#ffffff;stroke-width:3.56;stroke-opacity:1;stroke-dasharray:none"
       id="path3-3-9-1"
       cx="0.38545656"
       cy="563.38342"
       rx="27.434206"
       ry="27.438307"
       inkscape:export-filename="energy_selected.png"
       inkscape:export-xdpi="96"
       inkscape:export-ydpi="96" /><path
       sodipodi:type="star"
       style="fill:none;stroke:#ffffff;stroke-width:3.465;stroke-dasharray:none"
       id="path3-7-7"
       inkscape:flatsided="true"
       sodipodi:sides="6"
       sodipodi:cx="-660"
       sodipodi:cy="35"
       sodipodi:r1="35"
       sodipodi:r2="30.310888"
       sodipodi:arg1="0"
       sodipodi:arg2="0.52359878"
       inkscape:rounded="0"
       inkscape:randomized="0"
       d="m -625,35 -17.5,30.310889 -35,0 L -695,35 l 17.5,-30.3108891 35,0 z"
       inkscape:transform-center-x="-8.3149606e-06"
       transform="translate(-1.5186163e-5,220.31088)"
       inkscape:export-filename="capmarks\D.png"
       inkscape:export-xdpi="96"
       inkscape:export-ydpi="96" /><text
       xml:space="preserve"
       style="font-size:50.6595px;fill:#ffffff;fill-opacity:1;stroke:#dedede;stroke-width:2.0726;stroke-dasharray:none;stroke-opacity:1"
       x="-683.08032"
       y="272.58829"
       id="text3-3-4-2"
       transform="scale(0.99385173,1.0061863)"><tspan
         sodipodi:role="line"
         id="tspan3-3-9-4"
         style="fill:#ffffff;fill-opacity:1;stroke:#dedede;stroke-width:2.0726;stroke-dasharray:none;stroke-opacity:1"
         x="-683.08032"
         y="272.58829">D</tspan></text><path
       sodipodi:type="star"
       style="fill:none;stroke:#ffffff;stroke-width:3.465;stroke-dasharray:none"
       id="path3-7-9"
       inkscape:flatsided="true"
       sodipodi:sides="6"
       sodipodi:cx="-660"
       sodipodi:cy="35"
       sodipodi:r1="35"
       sodipodi:r2="30.310888"
       sodipodi:arg1="0"
       sodipodi:arg2="0.52359878"
       inkscape:rounded="0"
       inkscape:randomized="0"
       d="m -625,35 -17.5,30.310889 -35,0 L -695,35 l 17.5,-30.3108891 35,0 z"
       inkscape:transform-center-x="-8.3149606e-06"
       transform="translate(-2.5000148,295.31088)"
       inkscape:export-filename="capmarks\E.png"
       inkscape:export-xdpi="96"
       inkscape:export-ydpi="96" /><text
       xml:space="preserve"
       style="font-size:50.6595px;fill:#ffffff;fill-opacity:1;stroke:#dedede;stroke-width:2.0726;stroke-dasharray:none;stroke-opacity:1"
       x="-683.67871"
       y="345.59708"
       id="text3-3-4-5"
       transform="scale(0.99385173,1.0061863)"><tspan
         sodipodi:role="line"
         id="tspan3-3-9-48"
         style="fill:#ffffff;fill-opacity:1;stroke:#dedede;stroke-width:2.0726;stroke-dasharray:none;stroke-opacity:1"
         x="-683.67871"
         y="345.59708">E</tspan></text><rect
       style="fill:none;fill-opacity:1;stroke:#ffffff;stroke-width:3.56;stroke-opacity:1;stroke-dasharray:none"
       id="rect7-8-9"
       width="68.535255"
       height="44.998028"
       x="-217.36534"
       y="432.45132"
       ry="7.5069337"
       rx="13.60648"
       inkscape:export-filename="ship\resources_selected.png"
       inkscape:export-xdpi="96"
       inkscape:export-ydpi="96" /><path
       d="m -421.86523,591.6447 c 0.0365,16.49712 13.41832,29.8524 29.91548,29.85606 10.64658,-0.0299 20.47537,-5.71477 25.81031,-14.92829 h 29.12949 v -10.07173 h -25.47028 c 0.28035,-1.60386 0.42933,-3.22794 0.44545,-4.85604 z"
       style="fill:none;stroke:#ffffff;stroke-width:3.56;stroke-dasharray:none"
       id="path5-4"
       sodipodi:nodetypes="cccccccc"
       inkscape:export-filename=".\launcher_selected.png"
       inkscape:export-xdpi="96"
       inkscape:export-ydpi="96" /><path
       d="m -292.62307,670.96312 a 29.922199,29.922199 0 0 1 -3.65921,10.07173 h 29.12949 v -10.07173 z"
       style="fill:none;stroke:#ffffff;stroke-width:1.36"
       id="path7-5" /><path
       style="fill:none;fill-opacity:1;stroke:#ffffff;stroke-width:3.398;stroke-dasharray:none;stroke-opacity:1"
       d="m 196.48747,26.443675 c 0,0 0,0 27.31798,-49.793538 27.31798,49.793539 27.31798,49.793539 27.31798,49.793539 -54.98904,0.190172 -54.98904,0.190172 -54.98904,0.190172"
       id="path11-2" /><path
       style="fill:none;stroke:#ffffff;stroke-width:3.60294199;stroke-linecap:round;stroke-dasharray:none"
       d="M 302.68018,-5.5507896 C 317.82413,22.318207 317.82413,22.318207 317.82413,22.318207"
       id="path8"
       inkscape:export-filename="markers\ship_debris.png"
       inkscape:export-xdpi="96"
       inkscape:export-ydpi="96" /><path
       style="fill:none;stroke:#ffffff;stroke-width:3.61034;stroke-linecap:round;stroke-dasharray:none"
       d="M 291.2851,-5.5470925 C 275.12881,22.322228 275.12881,22.322228 275.12881,22.322228"
       id="path9"
       inkscape:export-filename="markers\ship_debris.png"
       inkscape:export-xdpi="96"
       inkscape:export-ydpi="96" /><path
       style="fill:none;stroke:#ffffff;stroke-width:4.27774172;stroke-linecap:round;stroke-dasharray:none"
       d="m 281.33473,32.507501 c 31.39978,0 31.39978,0 31.39978,0"
       id="path19" /><path
       style="fill:none;fill-opacity:1;stroke:#ffffff;stroke-width:3.398;stroke-dasharray:none;stroke-opacity:1"
       d="m 46.46872,-83.463765 c 0,0 0,0 27.31798,-49.793535 27.31798,49.793536 27.31798,49.793536 27.31798,49.793536 -54.98904,0.190172 -54.98904,0.190172 -54.98904,0.190172"
       id="path11-2-2" /><path
       style="fill:none;stroke:#ffffff;stroke-width:4.27773;stroke-linecap:round"
       d="m 450.00001,9.9999997 c 90,-149.9999897 90,-149.9999897 90,-149.9999897 119.6256,-1.51668 119.6256,-1.51668 119.6256,-1.51668"
       id="path20"
       inkscape:export-filename="markers\ship_name.png"
       inkscape:export-xdpi="96"
       inkscape:export-ydpi="96" /><path
       sodipodi:type="star"
       style="fill:none;stroke:#ffffff;stroke-width:13.22190207;stroke-linecap:round;fill-opacity:1;stroke-dasharray:none"
       id="path21"
       inkscape:flatsided="true"
       sodipodi:sides="6"
       sodipodi:cx="590"
       sodipodi:cy="-159.99998"
       sodipodi:r1="58.309521"
       sodipodi:r2="50.497528"
       sodipodi:arg1="0.54041948"
       sodipodi:arg2="1.0640183"
       inkscape:rounded="0"
       inkscape:randomized="0"
       d="m 640,-129.99998 -50.98076,28.30127 -50,-30 0.98076,-58.30127 50.98076,-28.30128 50,30 z"
       inkscape:transform-center-x="3.0654753e-06"
       transform="matrix(0.53941913,0,0,0.51961522,-145.75728,-32.155798)"
       inkscape:export-filename="space_station.png"
       inkscape:export-xdpi="96"
       inkscape:export-ydpi="96" /><rect
       style="fill:#ffffff;stroke:none;stroke-width:4.27773;stroke-linecap:round;fill-opacity:0.28089887"
       id="rect3"
       width="33.137497"
       height="31.857595"
       x="296.86249"
       y="375.07156"
       inkscape:export-filename="markers\damage_shade.png"
       inkscape:export-xdpi="96"
       inkscape:export-ydpi="96" /></g></svg>
